# xmcd
#
# Track frame offsets:
#	150
#	22620
#	36721
#	54772
#	74071
#	95194
#	113448
#	136763
#	153383
#	173916
#
# Disc length: 2616 seconds
#
# Revision: 0
# Processed by: cddbd v1.5.1PL2 Copyright (c) Steve Scherf et al.
# Submitted via: dBpowerAMP V4.0
#
DISCID=7f0a360a
DTITLE=Medina Azahara - Todo Tiene Su Fin
DYEAR=1997
DGENRE=
TTITLE0=Todo Tiene Su Fin
TTITLE1=Fria Y Sin Alma
TTITLE2=Dejame Vivir
TTITLE3=Junto A Lucia
TTITLE4=La Guitarra
TTITLE5=Algo Nuevo
TTITLE6=Desde Cordoba
TTITLE7=Tal Como Es
TTITLE8=Sin Tiempo Ni Sitio
TTITLE9=Velocidad
EXTD=
EXTT0=
EXTT1=
EXTT2=
EXTT3=
EXTT4=
EXTT5=
EXTT6=
EXTT7=
EXTT8=
EXTT9=
PLAYORDER=
